<svg width="86" height="79" viewBox="0 0 86 79" fill="none" xmlns="http://www.w3.org/2000/svg">
<mask id="mask0_55_399" style="mask-type:luminance" maskUnits="userSpaceOnUse" x="0" y="0" width="86" height="79">
<path d="M85.8812 0H0.509644V79H85.8812V0Z" fill="white"/>
</mask>
<g mask="url(#mask0_55_399)">
<path d="M54.8008 5.70898H42.4619L27.6553 19.4105L35.0586 23.4068L42.4619 16.5561L57.8855 30.8285L63.438 37.1084L71.4582 38.2502L75.1599 31.9703V10.2762L68.9905 5.70898H54.8008Z" fill="#FDC040"/>
<path d="M80.212 16.4284H76.874L76.8772 10.9063C76.8792 7.19891 73.6218 4.18109 69.6148 4.17927L44.2805 4.16602H44.2773C42.8353 4.16602 41.4792 4.68557 40.4592 5.62942L2.63755 40.6282C1.26519 41.8983 0.509644 43.5864 0.509644 45.3826C0.509644 47.1787 1.26519 48.8669 2.63755 50.1369L27.1824 72.8499C28.5991 74.1608 30.4599 74.8159 32.3201 74.8159C34.181 74.8159 36.0419 74.1608 37.4585 72.8499L61.2713 50.8143C61.9226 50.2116 61.9226 49.2345 61.2713 48.6325C60.6199 48.0297 59.5641 48.0297 58.9128 48.6325L35.1 70.668C33.5674 72.0862 31.0735 72.0862 29.5409 70.668L4.99603 47.955C4.25351 47.2679 3.84447 46.3541 3.84447 45.3826C3.84447 44.411 4.25351 43.4972 4.99603 42.8101L42.817 7.81189C43.2072 7.45085 43.7256 7.25195 44.2773 7.25195H44.2787L69.613 7.26522C71.7805 7.26581 73.5437 8.8992 73.5424 10.905L73.5346 23.8347H66.0241C65.3773 23.8347 64.7917 23.5899 64.3683 23.1957C65.066 22.9191 65.7199 22.5195 66.2885 21.9933C68.6847 19.7753 68.6847 16.1674 66.2885 13.95C63.8915 11.732 59.9927 11.732 57.5958 13.95C55.1996 16.1674 55.1996 19.7753 57.5958 21.9933C58.4842 22.8154 59.5797 23.332 60.7281 23.5448C61.5442 25.5162 63.6096 26.9206 66.0241 26.9206H73.5326L73.5281 34.3172C73.5281 34.8277 73.3131 35.3069 72.923 35.6672L68.3454 39.9038C67.694 40.5065 67.694 41.4836 68.3454 42.0863C68.9961 42.6884 70.0518 42.6884 70.7032 42.0863L75.2814 37.8498C76.3001 36.9064 76.8623 35.6529 76.8629 34.319L76.8675 26.9206H80.212C83.3378 26.9206 85.8812 24.5676 85.8812 21.6745C85.8812 18.782 83.3378 16.4284 80.212 16.4284ZM59.9542 16.1319C60.5027 15.6244 61.2224 15.3712 61.9427 15.3712C62.6625 15.3712 63.3822 15.6249 63.9307 16.1319C64.1039 16.2928 64.2471 16.4706 64.3657 16.658C62.5355 17.177 61.0974 18.5325 60.5718 20.2407C60.3509 20.1267 60.1419 19.985 59.9542 19.8115C58.858 18.7965 58.858 17.1463 59.9542 16.1319ZM80.212 23.8347H76.8694L76.872 19.5144H80.212C81.4991 19.5144 82.5464 20.4835 82.5464 21.6745C82.5464 22.8654 81.4991 23.8347 80.212 23.8347Z" fill="#3BB77E"/>
<path d="M27.4242 43.0958C27.6294 43.7786 28.2997 44.2253 29.0291 44.2253C29.1777 44.2253 29.3281 44.2072 29.4773 44.1687L46.5944 39.7597C47.4814 39.5313 48.0005 38.6803 47.7537 37.8593C47.5068 37.0391 46.5878 36.5587 45.7 36.7871L28.583 41.1954C27.6965 41.4245 27.1774 42.2749 27.4242 43.0958Z" fill="#3BB77E"/>
<path d="M34.9586 45.1318C34.0298 45.9914 33.5186 47.1335 33.5186 48.3492C33.5186 49.5643 34.0298 50.7064 34.9586 51.566C35.9174 52.4526 37.1758 52.8962 38.4347 52.8962C39.6938 52.8962 40.9528 52.4526 41.9116 51.566C43.8284 49.7921 43.8284 46.9056 41.9116 45.1318C39.9947 43.3581 36.8755 43.3581 34.9586 45.1318ZM39.5531 49.3834C38.9363 49.9542 37.9333 49.9542 37.3165 49.3834C37.0175 49.1075 36.8534 48.7398 36.8534 48.3486C36.8534 47.958 37.0181 47.5904 37.3165 47.3137C37.6252 47.0286 38.0303 46.8858 38.4347 46.8858C38.8399 46.8858 39.245 47.0286 39.5531 47.3137C40.1699 47.8845 40.1699 48.8133 39.5531 49.3834Z" fill="#3BB77E"/>
<path d="M42.7376 35.9451C44.6545 34.1707 44.6545 31.2848 42.7376 29.5111C41.8089 28.6516 40.5739 28.1785 39.2608 28.1785C37.9477 28.1785 36.7128 28.6516 35.7847 29.5111C33.8678 31.2848 33.8678 34.1707 35.7847 35.9451C36.7434 36.8317 38.0019 37.2753 39.2608 37.2753C40.5198 37.2753 41.7789 36.8317 42.7376 35.9451ZM38.1425 31.6929C38.4415 31.4163 38.8388 31.2644 39.2608 31.2644C39.6835 31.2644 40.0808 31.4163 40.3792 31.6929C40.996 32.2637 40.996 33.1919 40.3792 33.7627C39.763 34.3334 38.7593 34.3334 38.1425 33.7627C37.5263 33.1919 37.5263 32.2637 38.1425 31.6929Z" fill="#3BB77E"/>
<path d="M17.0938 39.9074C16.4425 39.3046 15.3867 39.3046 14.7353 39.9074L9.99753 44.2916C9.68489 44.5809 9.50903 44.9732 9.50903 45.3824C9.50903 45.7918 9.68489 46.1841 9.99753 46.4734L31.1418 66.0396C31.4668 66.3403 31.8941 66.4911 32.3207 66.4911C32.7474 66.4911 33.1739 66.3403 33.4997 66.0396L65.1127 36.7853C65.7641 36.1825 65.7641 35.2055 65.1127 34.6028L43.9692 15.0372C43.6565 14.7479 43.2324 14.5852 42.7902 14.5852C42.348 14.5852 41.9239 14.7479 41.6113 15.0372L24.1679 31.1787C23.5167 31.7815 23.5167 32.7585 24.1679 33.3611C24.8187 33.9633 25.8745 33.9633 26.5257 33.3611L42.7902 18.3107L61.576 35.6943L32.3207 62.7662L13.5349 45.3824L17.0938 42.0893C17.7445 41.4865 17.7452 40.51 17.0938 39.9074Z" fill="#3BB77E"/>
<path d="M64.8087 43.8162C64.3697 43.8162 63.9398 43.9813 63.6297 44.2682C63.3198 44.5551 63.1412 44.9535 63.1412 45.3591C63.1412 45.7648 63.3198 46.1631 63.6297 46.4501C63.9398 46.737 64.3697 46.9021 64.8087 46.9021C65.247 46.9021 65.6769 46.737 65.9876 46.4501C66.2976 46.1631 66.4761 45.7648 66.4761 45.3591C66.4761 44.9535 66.2976 44.5551 65.9876 44.2682C65.6769 43.9813 65.247 43.8162 64.8087 43.8162Z" fill="#3BB77E"/>
<path d="M21.8088 37.7245C22.1209 37.4377 22.2981 37.041 22.2981 36.6336C22.2981 36.2279 22.1209 35.8314 21.8088 35.5426C21.4989 35.2558 21.0702 35.0906 20.6306 35.0906C20.1916 35.0906 19.7617 35.2558 19.4518 35.5426C19.1411 35.8295 18.9633 36.2279 18.9633 36.6336C18.9633 37.041 19.1411 37.4377 19.4518 37.7245C19.7631 38.0132 20.1916 38.1765 20.6306 38.1765C21.0702 38.1765 21.4989 38.0132 21.8088 37.7245Z" fill="#3BB77E"/>
</g>
</svg>
