<svg width="86" height="79" viewBox="0 0 86 79" fill="none" xmlns="http://www.w3.org/2000/svg">
<g clip-path="url(#clip0_55_389)">
<mask id="mask0_55_389" style="mask-type:luminance" maskUnits="userSpaceOnUse" x="1" y="0" width="85" height="78">
<path d="M85.5886 0H1.37061V77.9325H85.5886V0Z" fill="white"/>
</mask>
<g mask="url(#mask0_55_389)">
<path d="M18.1316 18.6213V39.4999C22.4002 38.1832 32.8887 37.9199 40.6941 47.3999C42.5235 50.9738 45.4505 59.2499 42.5235 63.7642L51.0606 68.2785V34.4213L18.1316 18.6213Z" fill="#FDC040"/>
<path d="M84.7357 16.8551L51.9357 0.18847C51.4429 -0.0618467 50.8454 -0.0618467 50.3525 0.18847L37.9896 6.47018C37.7288 6.5338 37.4852 6.6551 37.2835 6.82931L17.5531 16.8551C17.027 17.122 16.6999 17.6334 16.6999 18.1893V38.3467C13.3716 39.3099 10.3215 41.0086 7.78541 43.356C1.17504 49.4724 -0.510318 58.8013 3.5916 66.5695C3.98997 67.3246 4.97498 67.638 5.791 67.2687C6.60765 66.8995 6.94562 65.988 6.54726 65.2329C3.06217 58.6324 4.49436 50.7061 10.1114 45.5084C13.6241 42.2578 18.294 40.4675 23.2614 40.4675C28.2288 40.4675 32.8988 42.2578 36.4115 45.5084C39.9235 48.7583 41.8583 53.0798 41.8583 57.6764C41.8583 62.2731 39.9235 66.5945 36.4109 69.845C30.7939 75.0428 22.2282 76.3682 15.0955 73.1432C14.2795 72.7739 13.2944 73.0873 12.8961 73.8423C12.4971 74.5981 12.8351 75.5095 13.6518 75.8781C16.7095 77.2612 19.9904 77.933 23.2473 77.933C28.9293 77.9325 34.5354 75.8859 38.7375 71.9974C40.6644 70.2143 42.1872 68.157 43.2647 65.9208L50.3525 69.5221C50.5993 69.6476 50.8717 69.71 51.1442 69.71C51.4165 69.71 51.6897 69.6476 51.9357 69.5221L84.7357 52.8562C85.262 52.5886 85.5889 52.0772 85.5889 51.5219V40.9438C85.5889 40.1031 84.8527 39.4217 83.9441 39.4217C83.0356 39.4217 82.2992 40.1031 82.2992 40.9438V50.6212L52.7942 65.6134V35.7537L62.5318 30.8056V38.6493C62.5318 39.1881 62.8389 39.6862 63.3394 39.9598C63.5977 40.1007 63.8869 40.1714 64.1766 40.1714C64.4491 40.1714 64.7222 40.109 64.9695 39.9829L71.9981 36.403C72.5238 36.1354 72.8495 35.6247 72.8495 35.07V25.5627L82.2992 20.7614V28.7674C82.2992 29.6082 83.0356 30.2896 83.9441 30.2896C84.8527 30.2896 85.5889 29.6082 85.5889 28.7674V18.1893C85.5889 17.6339 85.262 17.122 84.7357 16.8551ZM51.1442 3.25887L80.5265 18.1893L71.258 22.8989L41.8756 7.96852L51.1442 3.25887ZM51.1442 33.1192L21.7618 18.1893L31.3702 13.3066L60.7532 28.2365L51.1442 33.1192ZM64.1702 26.5003L34.7878 11.5704L38.458 9.70528L67.8409 24.6351L64.1702 26.5003ZM38.7375 43.356C34.6034 39.5305 29.1072 37.4239 23.2614 37.4239C22.1556 37.4239 21.0634 37.4994 19.9896 37.6474V20.7614L49.505 35.7591V65.6187L44.3821 63.0157C44.8866 61.2973 45.1474 59.5053 45.1474 57.6764C45.1474 52.267 42.8709 47.1809 38.7375 43.356ZM69.5604 34.1703L65.8215 36.0748V29.1343L69.5604 27.2346V34.1703Z" fill="#3BB77E"/>
<path d="M83.9437 33.3254C83.5113 33.3254 83.0866 33.4884 82.7808 33.7715C82.4749 34.0544 82.2988 34.4469 82.2988 34.8475C82.2988 35.2477 82.4749 35.6401 82.7808 35.9232C83.0866 36.2068 83.5113 36.3691 83.9437 36.3691C84.3762 36.3691 84.8008 36.2068 85.1067 35.9232C85.4126 35.6401 85.5887 35.2477 85.5887 34.8475C85.5887 34.4469 85.4126 34.0544 85.1067 33.7715C84.8008 33.4884 84.3762 33.3254 83.9437 33.3254Z" fill="#3BB77E"/>
<path d="M17.7301 59.1979C18.151 59.1979 18.5725 59.0493 18.8931 58.7526C19.5356 58.1579 19.5356 57.1941 18.8931 56.5996L17.7539 55.5448H27.4754C29.8335 55.5448 31.752 57.3202 31.752 59.5023C31.752 61.6844 29.8335 63.4599 27.4754 63.4599H21.715C20.8065 63.4599 20.0701 64.1412 20.0701 64.982C20.0701 65.8221 20.8065 66.5035 21.715 66.5035H27.4754C31.6474 66.5035 35.0419 63.3629 35.0419 59.5023C35.0419 55.6417 31.6474 52.5012 27.4754 52.5012H17.7539L18.8931 51.4463C19.5356 50.8518 19.5356 49.888 18.8931 49.2935C18.2511 48.6994 17.2096 48.6994 16.5671 49.2935L12.6194 52.9465C11.9775 53.5411 11.9775 54.5049 12.6194 55.0995L16.5671 58.7519C16.8883 59.0493 17.3092 59.1979 17.7301 59.1979Z" fill="#3BB77E"/>
<path d="M8.94913 72.4451C8.48137 72.4451 8.01681 72.2608 7.69234 71.9034L7.68913 71.8999C7.10442 71.2565 7.19438 70.2969 7.88959 69.7558C8.58481 69.2141 9.6225 69.2974 10.2072 69.9407C10.7913 70.5846 10.7032 71.5461 10.008 72.0871C9.69896 72.3274 9.32308 72.4451 8.94913 72.4451Z" fill="#3BB77E"/>
</g>
</g>
<defs>
<clipPath id="clip0_55_389">
<rect width="85.3716" height="79" fill="white" transform="translate(0.44751)"/>
</clipPath>
</defs>
</svg>
