<svg width="86" height="79" viewBox="0 0 86 79" fill="none" xmlns="http://www.w3.org/2000/svg">
<mask id="mask0_55_376" style="mask-type:luminance" maskUnits="userSpaceOnUse" x="0" y="0" width="85" height="79">
<path d="M84.8595 0H0.476685V78.085H84.8595V0Z" fill="white"/>
</mask>
<g mask="url(#mask0_55_376)">
<path d="M54.5178 37.2429L58.7864 31.0358L64.8844 28.2144C65.6975 28.0262 67.4455 27.7629 67.9334 28.2144C68.4212 28.6658 75.4542 37.4311 78.9097 41.7572L81.9587 46.8358C81.3489 47.9644 80.0073 50.3344 79.5195 50.7858C79.0317 51.2372 74.4378 53.2311 72.2019 54.1715C70.9823 54.3596 68.4212 54.7358 67.9334 54.7358C67.4455 54.7358 61.6321 47.5882 58.7864 44.0144L55.585 38.9358L54.5178 37.2429Z" fill="#FDC040"/>
<path d="M67.9333 54.7358C67.4455 54.7358 61.632 47.5882 58.7864 44.0144L55.5849 38.9358H53.2982H47.2002C46.5904 38.9358 43.5414 40.0644 42.3218 40.6286L38.663 42.3215C37.4435 42.8858 36.2239 44.0144 35.6141 44.5786C35.0043 45.1429 33.7847 46.8358 33.7847 47.4001C33.7847 47.9644 33.7847 49.0929 34.3945 49.6572C35.0043 50.2215 36.2239 50.7858 36.8337 50.7858H40.4924C41.4681 50.7858 44.1512 49.6572 45.3708 49.0929C45.7773 49.2811 46.7124 49.7701 47.2002 50.2215C47.688 50.6729 51.8753 53.4191 53.908 54.7358L58.7864 59.2501C59.5995 59.6262 61.3475 60.2658 61.8353 59.8144C62.3232 59.3629 64.0712 58.1215 64.8843 57.5572L66.7137 56.4286L67.9333 54.7358Z" fill="#FDC040"/>
<path d="M19.1497 60.9429C19.1497 61.8457 20.7757 63.5762 21.5888 64.3286L25.8574 67.7143L28.2966 69.4072L30.7358 71.6643C31.5489 72.0405 33.175 72.9057 33.175 73.3572C33.175 73.8086 35.6142 74.2976 36.8338 74.4857C37.4436 74.1096 38.7851 73.2443 39.273 72.7929C39.8828 72.2286 39.8828 72.2286 39.8828 71.1C39.8828 69.9714 39.8828 68.8429 39.273 67.7143C38.6632 66.5857 38.6632 64.3286 38.0534 63.7643C37.4436 63.2 35.0044 62.0714 35.0044 61.5072C35.0044 60.9429 33.175 58.6857 32.5652 58.1214C31.9554 57.5572 30.7358 55.3 30.126 54.7357C29.5162 54.1714 27.6868 53.0429 26.4672 53.6072C25.2476 54.1714 21.5888 56.9929 20.979 57.5572C20.4912 58.0086 19.5561 60.0024 19.1497 60.9429Z" fill="#FDC040"/>
<path d="M30.7357 5.64282C34.3945 10.3452 44.883 19.5243 57.5668 18.6214L55.1276 25.3928L51.4688 28.2143L39.8827 31.6L30.7357 28.7785L25.2476 19.75L25.8574 12.4143L28.9063 7.33568L30.7357 5.64282Z" fill="#FDC040"/>
<path d="M41.3039 20.2859C40.6601 20.2859 39.8707 20.1988 39.3302 19.6414C39.1422 19.4455 38.9776 19.2626 38.8179 19.1101C37.5303 17.8562 35.3122 19.5979 36.6562 21.2261L36.9805 21.6135C37.1918 21.8576 37.5726 22.1405 38.1176 22.4628C38.6488 22.776 39.2408 23.0025 39.8987 23.1374V25.2885C39.8987 26.0286 40.5517 26.6382 41.3509 26.6382C42.1545 26.6382 42.8358 26.0286 42.8358 25.2885V23.1245C43.8885 22.8983 44.7908 22.4235 45.5285 21.7053C46.2707 20.9866 46.6421 20.0333 46.6421 18.8446C46.6421 18.0348 46.4732 17.3601 46.1346 16.8156C45.7963 16.2757 45.3828 15.8971 44.8893 15.6836C44.3912 15.4702 43.8508 15.2829 43.254 15.122C42.662 14.9609 42.1216 14.8476 41.6234 14.7781C41.13 14.7125 40.7165 14.5732 40.378 14.3688C40.0396 14.1595 39.8706 13.8897 39.8706 13.5544C39.8706 11.9523 42.4082 12.1481 43.5264 13.0189C45.1759 14.3033 47.0226 11.9523 45.1101 10.6243L44.8892 10.4413C44.7387 10.3327 44.4756 10.1976 44.095 10.0277C43.719 9.85813 43.2959 9.7317 42.8356 9.64019V8.33852V7.77257C42.8356 7.03228 42.1823 6.42285 41.3788 6.42285C40.5799 6.42285 39.9221 7.03213 39.9221 7.77257V9.61854C38.8505 9.81451 37.9624 10.3067 37.347 11.0335C36.7267 11.7739 36.4118 12.5925 36.4118 13.5064C36.4118 14.4253 36.6423 15.1785 37.1026 15.7751C37.5631 16.3712 38.1224 16.7893 38.785 17.0332C39.4428 17.2771 40.1006 17.4731 40.7585 17.6166C41.421 17.7649 41.9805 17.9257 42.4407 18.113C42.9014 18.2959 43.1316 18.5528 43.1316 18.888C43.1318 19.8198 42.521 20.2859 41.3039 20.2859Z" fill="#3BB77E"/>
<path d="M83.1172 44.0521L69.5751 28.0008C68.663 26.9168 67.28 26.2949 65.7811 26.2949C64.7231 26.2949 63.7215 26.6057 62.881 27.1959L54.0185 33.4475C53.004 34.1629 52.3559 35.2012 52.1935 36.3709C52.1692 36.5453 52.1577 36.7191 52.1558 36.8921C48.7771 36.6552 45.2874 36.8933 41.8984 38.9318L41.7464 39.0231L33.1733 37.8098C33.1908 37.5352 33.1813 37.2572 33.1422 36.9782C32.9787 35.8113 32.3317 34.7753 31.3192 34.0611L22.4545 27.8151C20.3775 26.3454 17.3745 26.7024 15.7595 28.6131L12.5313 32.4403C11.9663 33.1098 12.0951 34.0763 12.8187 34.5988C13.5423 35.1216 14.5868 35.0023 15.1516 34.3328L18.3789 30.507C18.8674 29.9289 19.8091 29.8152 20.438 30.2604L29.3048 36.5077C29.6051 36.7195 29.7972 37.0271 29.8457 37.3739C29.8943 37.7211 29.7929 38.0649 29.5616 38.3398L16.0169 54.3938C15.5316 54.9705 14.5887 55.0831 13.9608 54.6425L5.09781 48.3902C4.79588 48.1774 4.60289 47.8687 4.55459 47.5214C4.50664 47.1758 4.608 46.8344 4.8412 46.5586L7.14393 43.8289C7.70873 43.1593 7.58002 42.1929 6.85633 41.6704C6.13282 41.1474 5.08842 41.2668 4.52344 41.9364L2.22205 44.6646C1.43804 45.592 1.09556 46.7458 1.25774 47.9134C1.42007 49.0829 2.06844 50.1212 3.08268 50.8365L11.9485 57.0909C12.8113 57.6965 13.831 57.9895 14.844 57.9894C15.4299 57.9894 16.0128 57.8897 16.5625 57.6976L17.7099 59.1518C17.0862 60.2045 16.989 61.4692 17.4903 62.6897C18.2066 64.4348 19.8971 65.6178 21.726 65.6742C21.7827 65.9228 21.8613 66.1712 21.9686 66.4172C22.7059 68.1075 24.3891 69.2579 26.1979 69.3337C26.2062 69.3776 26.2124 69.4216 26.2222 69.4656C26.5664 71.0132 27.8494 72.3349 29.4907 72.8328C29.9088 72.9597 30.3304 73.0248 30.7479 73.0363C30.9077 73.6594 31.2419 74.2612 31.7557 74.7895C32.5565 75.6133 33.7256 76.1403 35.0081 76.1401C35.9396 76.1401 36.9308 75.8604 37.8837 75.2159L39.7657 76.8439C40.7243 77.6717 41.9311 78.0849 43.1263 78.0849C44.3387 78.0848 45.5387 77.6596 46.4553 76.8107C47.0018 76.3045 47.4252 75.7023 47.6991 75.0683C48.1661 75.1996 48.6224 75.2618 49.0601 75.2618C50.2927 75.2617 51.3805 74.78 52.1598 74.0372C52.7975 73.4295 53.254 72.6204 53.4559 71.758C53.5233 71.7611 53.5907 71.7637 53.6584 71.7643C53.6751 71.7645 53.6914 71.7645 53.7081 71.7645C55.019 71.7645 56.2768 71.2946 57.1651 70.4714C57.7875 69.8949 58.2156 69.1853 58.42 68.4105C58.7371 68.4677 59.0555 68.4976 59.3732 68.4976C59.7732 68.4976 60.1723 68.4517 60.5654 68.3585C62.168 67.9785 63.4057 66.8193 63.7951 65.3335C64.1545 63.9623 63.7842 62.518 62.7761 61.2051C65.3863 59.2618 66.4421 58.3046 67.6345 56.5147C68.4489 57.0691 69.4405 57.3745 70.4883 57.3745C71.5494 57.3745 72.5529 57.0615 73.3872 56.4711L82.2555 50.2228C83.2671 49.5092 83.9143 48.4735 84.0778 47.3063C84.2412 46.1381 83.9007 44.9828 83.1172 44.0521ZM22.5955 62.2828C22.341 62.4957 22.094 62.6037 21.8615 62.6037C21.3842 62.6037 20.8291 62.1618 20.5974 61.5974C20.387 61.0848 20.4851 60.6565 20.8899 60.3239L20.8952 60.3197L20.9002 60.3156L26.4995 55.7101C26.968 55.3256 27.4393 55.1224 27.863 55.1224C28.4831 55.1224 28.9466 55.558 29.1149 55.9631C29.295 56.3957 29.1867 56.7818 28.795 57.1096L27.819 57.924L27.8164 57.9262C27.8116 57.93 27.8071 57.934 27.8022 57.9379C27.7673 57.9673 27.7312 57.9974 27.6956 58.0272L22.5955 62.2828ZM27.1214 65.9588C26.8691 66.1651 26.6286 66.2651 26.3867 66.2651C25.8822 66.2651 25.2957 65.8264 25.0513 65.2659C24.7818 64.6485 25.1015 64.3634 25.2025 64.2732C25.2675 64.2156 25.3454 64.1464 25.4266 64.066L25.4281 64.0647L25.4453 64.0507C25.765 63.7864 28.5804 61.4324 29.9256 60.3077L30.0259 60.2241C30.4817 59.8538 30.9435 59.6581 31.3619 59.6581C32.0218 59.6581 32.5131 60.1254 32.6903 60.5595C32.8665 60.991 32.7608 61.3688 32.3775 61.6812L32.0327 61.9617C32.0301 61.9639 32.0276 61.9656 32.0251 61.9677L32.0227 61.97L27.1214 65.9588ZM32.0753 69.2784C32.0523 69.2974 32.0308 69.3174 32.0086 69.3368L31.6185 69.6624C31.2719 69.9522 30.9248 70.0312 30.526 69.9101C30.0218 69.7571 29.5816 69.3095 29.4784 68.8459C29.3886 68.4428 29.563 68.0692 30.0057 67.7081L30.5603 67.2597C30.5743 67.2484 30.5864 67.236 30.5999 67.2244L34.2326 64.2681C35.1032 63.556 35.9653 63.4846 36.5391 64.0782C36.6198 64.1619 37.3042 64.9146 36.4687 65.613L34.2377 67.4759C34.2138 67.4955 34.1896 67.5129 34.1659 67.5329C34.1575 67.5401 34.1505 67.5484 34.1422 67.5554L32.1008 69.26C32.0926 69.2665 32.0833 69.2716 32.0753 69.2784ZM34.227 72.7321C34.0519 72.5522 33.7139 72.0857 34.2682 71.5931L36.4939 69.7348C36.6623 69.6015 36.8246 69.4957 36.9766 69.4232C36.9834 69.4198 36.9906 69.4164 36.9974 69.4131C37.8946 68.9697 38.3807 69.4866 38.5086 69.6554C38.6729 69.8726 38.8733 70.2992 38.3695 70.718L36.8447 71.9863C36.8389 71.991 36.8333 71.9959 36.8275 72.0006L36.1665 72.5503C35.0802 73.4526 34.4073 72.9179 34.227 72.7321ZM60.5646 64.6085C60.4624 64.998 60.162 65.2788 59.7403 65.3789C59.0411 65.5445 58.1562 65.1853 57.3459 64.4159C57.2851 64.3537 57.2228 64.2925 57.1577 64.2331L50.8841 58.4944C50.231 57.8975 49.1787 57.903 48.5336 58.5072C47.8883 59.1112 47.8943 60.085 48.547 60.682L54.8106 66.4114C54.8211 66.4216 54.8317 66.4317 54.8419 66.4419C55.0922 66.6801 55.2313 66.9982 55.2329 67.3426C55.2344 67.7064 55.0854 68.0455 54.8131 68.2977C54.5446 68.5467 54.143 68.6887 53.7089 68.6887C53.7028 68.6887 53.6968 68.6887 53.6908 68.6885C53.3065 68.6852 52.9557 68.566 52.7089 68.3581C52.6048 68.2338 52.4916 68.1131 52.3671 67.9974L47.7807 63.7481C47.132 63.1474 46.0796 63.1467 45.4302 63.7468C44.7808 64.347 44.7801 65.3207 45.4286 65.9217L49.7782 69.9516C49.8306 70.0225 49.8888 70.0909 49.9556 70.1549L50.1408 70.3316C50.3792 70.7517 50.2314 71.4596 49.7749 71.8948C49.0704 72.5661 48.079 71.9743 47.3728 71.3605L45.4086 69.6494C44.7403 69.0672 43.6882 69.0967 43.0592 69.715C42.43 70.3336 42.4617 71.307 43.13 71.8892L44.6305 73.1961C44.6342 73.1992 44.6371 73.2027 44.6407 73.2058C44.675 73.2355 44.7266 73.2803 44.7292 73.4353C44.7356 73.7958 44.4784 74.29 44.1038 74.6371C43.5569 75.1434 42.6477 75.1254 42.0347 74.596L40.39 73.1734L40.591 73.006C42.2219 71.6509 42.4851 69.5476 41.2311 67.891C40.8231 67.3519 40.3119 66.9331 39.7386 66.6425C40.5468 65.1675 40.3208 63.3767 39.0163 62.0275C38.2806 61.2662 37.2411 60.7463 36.0808 60.6311C36.0476 60.2453 35.9564 59.8564 35.7999 59.473C35.2354 58.0897 33.9803 57.0715 32.5032 56.719C32.5647 56.1061 32.4732 55.4736 32.2175 54.8582C31.5179 53.1765 29.7683 52.0463 27.8632 52.0463C26.6139 52.0463 25.3798 52.5175 24.2928 53.4098L20.0493 56.9001L19.1166 55.718L31.7684 40.7227L37.5528 41.5414L36.6778 42.0667C31.9905 44.8808 31.6474 48.1535 32.8895 50.2782C33.8834 51.9788 35.8672 52.9509 37.973 52.9509C38.8399 52.9508 39.7279 52.786 40.5755 52.4394C40.5979 52.43 40.6201 52.4206 40.6419 52.4105L45.0239 50.4L47.5535 52.5314C47.5561 52.5334 47.5586 52.535 47.5609 52.537C47.5634 52.5391 47.5655 52.5412 47.5679 52.5433L59.2599 62.1656C60.2617 62.9899 60.7495 63.9031 60.5646 64.6085ZM60.4249 59.0081L49.7841 50.251L46.422 47.4183C45.9157 46.9915 45.1781 46.8958 44.5648 47.1774L39.2011 49.6385C37.7439 50.2185 36.3106 49.6666 35.8128 48.8151C35.1289 47.6451 36.1533 46.048 38.4867 44.6473L43.7087 41.5116C46.5401 39.8083 49.5103 39.677 53.5734 40.1133L65.3384 54.0629C64.0968 56.126 63.4375 56.7809 60.4249 59.0081ZM80.7812 46.9109C80.7328 47.2572 80.5406 47.5647 80.241 47.776L71.3706 54.0257C71.052 54.2513 70.7152 54.2986 70.4887 54.2986C70.0225 54.2985 69.5944 54.1086 69.3156 53.7786L55.7756 37.7245C55.5436 37.4498 55.4422 37.1084 55.4903 36.7629C55.5386 36.4155 55.7314 36.1066 56.0335 35.8936L64.8933 29.6438C65.2148 29.4184 65.5533 29.371 65.7808 29.371C66.2476 29.371 66.6746 29.5602 66.9537 29.8919L80.4958 45.9434C80.7285 46.2201 80.83 46.5635 80.7812 46.9109Z" fill="#3BB77E"/>
<path d="M32.9161 31.2436C35.5256 32.5465 38.4732 33.2352 41.4405 33.2352C51.3326 33.2352 59.3807 25.7795 59.3807 16.6153C59.3807 10.2194 55.3456 4.32121 49.1021 1.5893C46.6969 0.534699 44.1192 0 41.4405 0C31.5505 0 23.5046 7.4536 23.5046 16.6153C23.5046 22.7258 27.1099 28.3305 32.9161 31.2436ZM41.4405 3.07582C43.6229 3.07582 45.7219 3.51093 47.6799 4.36925C52.7684 6.59574 56.0566 11.4027 56.0566 16.6153C56.0566 24.0836 49.4998 30.1594 41.4406 30.1594C39.0225 30.1594 36.6208 29.5981 34.4977 28.5382C29.7673 26.1647 26.8286 21.5961 26.8286 16.6153C26.8286 9.14967 33.3834 3.07582 41.4405 3.07582Z" fill="#3BB77E"/>
<path d="M8.80068 39.3344C9.10672 39.5605 9.47277 39.6703 9.83633 39.6703C10.3245 39.6703 10.8082 39.4721 11.1364 39.0915L11.1552 39.0697C11.7277 38.4059 11.6102 37.4381 10.8928 36.9084C10.1754 36.3788 9.12947 36.4871 8.55709 37.1512L8.5383 37.1731C7.96574 37.8369 8.08325 38.8046 8.80068 39.3344Z" fill="#3BB77E"/>
</g>
</svg>
