<svg width="410" height="96" viewBox="0 0 410 96" fill="none" xmlns="http://www.w3.org/2000/svg">
<g clip-path="url(#clip0_101_256)">
<path d="M37.3364 32.6753L26.4925 77.69H0L5.37191 55.5445L37.3364 32.6753Z" fill="#072654"/>
<path d="M93.7253 18.3823C99.9313 18.4185 104.302 19.9021 106.771 22.9055C109.24 25.9089 109.841 30.1788 108.473 35.7875C107.572 39.6232 105.737 43.1332 103.168 45.9194C100.499 48.8143 97.2287 50.913 93.5918 51.9986C96.3612 52.6861 98.0628 54.8211 98.5967 58.4758L98.6968 59.2719L100.699 77.6903H88.3534L86.2847 57.8606C86.2513 57.2093 86.0845 56.558 85.7842 55.979C85.4839 55.4 85.0501 54.9296 84.5496 54.5678C83.5153 53.9888 82.3809 53.6993 81.2131 53.6631H80.5124H72.905L67.0993 77.6541H55.5547L69.902 18.3823H93.7253ZM410 33.9059L395.32 56.8475L378.003 84.0589L377.869 84.2037L373.999 90.2828L373.865 90.4999L373.698 90.7894L370.362 96.0001H358.884L372.297 75.483L366.224 35.3533H378.136L381.139 61.5154L395.687 39.1166L395.887 38.7909L396.12 38.4291L396.354 38.1034L398.156 33.9421H410V33.9059ZM308.301 37.0902C310.503 39.1166 311.938 41.9029 312.439 45.0148C313.039 48.8867 312.772 52.9032 311.738 56.6665C310.77 60.8279 309.135 64.7359 306.867 68.2097C304.798 71.394 302.129 74.0355 299.026 75.9172C296.089 77.6541 292.853 78.5587 289.516 78.5587C287.147 78.6673 284.812 78.0159 282.776 76.7133C281.208 75.7001 280.007 74.1441 279.34 72.2986L279.139 71.5749L273.234 96.0001H261.789L273.501 47.5116L273.567 47.2945L273.601 47.0774L276.47 35.3171H287.648L285.746 42.12L285.713 42.4095C287.347 39.8765 289.55 37.8139 292.085 36.475C294.621 35.0276 297.424 34.3039 300.26 34.3039C303.096 34.123 305.966 35.1362 308.301 37.0902ZM294.488 43.8207C293.153 43.7845 291.819 44.074 290.551 44.6168C289.316 45.1596 288.182 45.9918 287.214 47.005C284.945 49.538 283.377 52.7585 282.676 56.1961C281.675 60.2127 281.742 63.2523 282.743 65.351C283.744 67.4498 285.646 68.5354 288.482 68.5354C291.185 68.6077 293.787 67.486 295.756 65.4234C297.958 62.9266 299.493 59.8147 300.193 56.4132C301.161 52.469 301.094 49.3209 300.093 47.1136C299.092 44.9063 297.224 43.8207 294.488 43.8207ZM345.871 36.1494C347.406 37.1988 348.607 38.7547 349.275 40.6002L349.508 41.2877L350.976 35.2809H362.187L351.91 77.6179H340.666L342.168 71.3578C340.466 73.5651 338.331 75.302 335.928 76.4962C333.593 77.6541 331.09 78.2692 328.554 78.2692C325.618 78.414 322.682 77.5093 320.28 75.5915C318.077 73.7099 316.609 70.9598 316.142 67.9564C315.542 64.1207 315.742 60.2127 316.776 56.4856C317.777 52.3243 319.445 48.3801 321.748 44.8701C323.85 41.6496 326.552 38.9357 329.689 36.9816C332.558 35.1724 335.828 34.1954 339.131 34.1954C341.534 34.123 343.869 34.7743 345.871 36.1494ZM340.066 43.9293C338.698 43.9293 337.33 44.2187 336.095 44.7977C334.827 45.3767 333.693 46.2089 332.725 47.2583C330.49 49.8275 328.888 53.0118 328.187 56.4856C327.253 60.3936 327.253 63.3608 328.321 65.4958C329.355 67.6307 331.29 68.6439 334.16 68.6439C335.494 68.6801 336.829 68.3906 338.097 67.8478C339.365 67.305 340.466 66.4728 341.434 65.4596C343.402 63.1799 344.837 60.466 345.638 57.4264L345.905 56.3047C346.906 52.2881 346.872 49.2123 345.805 47.1498C344.77 45.0148 342.868 43.9293 340.066 43.9293ZM270.698 34.8467L271.432 35.1724L268.562 46.7155C266.928 45.7747 265.126 45.3043 263.324 45.3043C260.588 45.1957 257.919 46.1728 255.75 48.0182C253.882 49.7551 252.514 52.071 251.813 54.604L251.579 55.581L246.241 77.6903H234.83L245.173 35.3533H256.417L254.949 41.5772C256.351 39.4784 258.152 37.7777 260.188 36.5112C262.457 35.1 264.992 34.3763 267.595 34.3763C268.629 34.3039 269.697 34.4487 270.698 34.8467ZM228.557 36.8731C231.093 38.61 232.928 41.3601 233.628 44.5444C234.463 48.3801 234.329 52.4328 233.261 56.1961C232.26 60.466 230.492 64.4464 227.99 67.8478C225.621 71.1407 222.618 73.7461 219.181 75.5191C215.678 77.2922 211.874 78.1969 208.003 78.1607C203.933 78.1607 200.596 77.2922 197.994 75.5191C195.424 73.7822 193.589 71.0322 192.855 67.8478C192.055 64.0122 192.188 59.9594 193.222 56.1961C194.223 51.9624 195.992 47.982 198.494 44.5444C200.863 41.2877 203.899 38.6462 207.369 36.8731C210.906 35.1 214.777 34.1592 218.68 34.2316C222.117 34.0506 225.554 34.9914 228.557 36.8731ZM216.345 43.7845C213.642 43.7483 211.04 44.8701 209.071 46.8965C207.036 48.9952 205.501 52.071 204.533 56.1961C202.531 64.4826 204.467 68.6077 210.339 68.6077C213.008 68.6801 215.577 67.5583 217.513 65.532C219.515 63.4694 220.983 60.3574 221.984 56.1961C222.985 52.1072 223.018 49.0314 222.017 46.8965C221.049 44.7615 219.148 43.7845 216.345 43.7845ZM193.156 35.3171L191.154 43.7121L165.962 67.8478H186.182L183.78 77.7265H150.314L152.416 69.0058L177.207 45.2319H158.355L160.757 35.3533H193.156V35.3171ZM136.667 36.1494C138.202 37.1988 139.403 38.7547 140.07 40.6002L140.304 41.2877L141.772 35.2809H153.016L142.773 77.6179H131.529L133.03 71.3578C131.329 73.5289 129.227 75.2658 126.858 76.46C124.489 77.6541 121.919 78.2692 119.284 78.2692C116.347 78.414 113.478 77.4732 111.109 75.5915C108.907 73.7099 107.439 70.9598 106.972 67.9564C106.371 64.1207 106.571 60.2127 107.605 56.4856C108.573 52.3243 110.275 48.3801 112.577 44.8701C114.679 41.6496 117.382 38.9357 120.485 36.9816C123.354 35.1724 126.624 34.2316 129.927 34.2316C132.33 34.1592 134.665 34.8105 136.667 36.1494ZM130.895 43.9293C129.527 43.9293 128.192 44.2187 126.924 44.7977C125.656 45.3767 124.522 46.2089 123.554 47.2583C121.285 49.8275 119.717 53.0118 119.017 56.4856C118.082 60.3936 118.116 63.3608 119.15 65.4958C120.184 67.6307 122.12 68.6439 124.989 68.6439C126.324 68.6801 127.658 68.3906 128.926 67.8478C130.161 67.305 131.329 66.4728 132.263 65.4596C134.231 63.2161 135.7 60.466 136.467 57.4264L136.734 56.3047C137.701 52.2881 137.601 49.2847 136.634 47.1498C135.599 45.0148 133.664 43.9293 130.895 43.9293ZM89.5879 28.261H78.8774L75.1071 43.7483H85.8175C89.1875 43.7483 91.8568 43.1332 93.6585 41.8667C95.5604 40.5278 96.9284 38.4291 97.4289 35.9685C98.0962 33.3631 97.7959 31.3729 96.528 30.1064C95.2601 28.9123 92.9578 28.261 89.5879 28.261Z" fill="#072654"/>
<path d="M61.3929 0L42.5745 77.6902H29.6619L42.3743 25.0765L22.8887 39.0079L26.3587 25.1489L61.3929 0Z" fill="#3395FF"/>
</g>
<defs>
<clipPath id="clip0_101_256">
<rect width="410" height="96" fill="white"/>
</clipPath>
</defs>
</svg>
