<svg width="61" height="61" viewBox="0 0 61 61" fill="none" xmlns="http://www.w3.org/2000/svg">
<path d="M13.5789 28.9849H51.0789C51.5762 28.9849 52.0531 29.1824 52.4047 29.534C52.7564 29.8857 52.9539 30.3626 52.9539 30.8599C52.9539 31.3571 52.7564 31.8341 52.4047 32.1857C52.0531 32.5373 51.5762 32.7349 51.0789 32.7349H13.5789C13.0816 32.7349 12.6047 32.5373 12.2531 32.1857C11.9015 31.8341 11.7039 31.3571 11.7039 30.8599C11.7039 30.3626 11.9015 29.8857 12.2531 29.534C12.6047 29.1824 13.0816 28.9849 13.5789 28.9849Z" fill="#072319"/>
<path d="M14.3552 30.8598L29.9064 46.4073C30.2585 46.7594 30.4563 47.2369 30.4563 47.7348C30.4563 48.2327 30.2585 48.7102 29.9064 49.0623C29.5543 49.4144 29.0768 49.6122 28.5789 49.6122C28.081 49.6122 27.6035 49.4144 27.2514 49.0623L10.3764 32.1873C10.2018 32.0131 10.0633 31.8062 9.96874 31.5784C9.87422 31.3506 9.82556 31.1064 9.82556 30.8598C9.82556 30.6132 9.87422 30.369 9.96874 30.1412C10.0633 29.9134 10.2018 29.7065 10.3764 29.5323L27.2514 12.6573C27.6035 12.3052 28.081 12.1074 28.5789 12.1074C29.0768 12.1074 29.5543 12.3052 29.9064 12.6573C30.2585 13.0094 30.4563 13.4869 30.4563 13.9848C30.4563 14.4827 30.2585 14.9602 29.9064 15.3123L14.3552 30.8598Z" fill="#072319"/>
</svg>
