<svg width="37" height="38" viewBox="0 0 37 38" fill="none" xmlns="http://www.w3.org/2000/svg">
<path d="M7.41622 5H36L32.1111 19H9.51027M34.0556 27H10.7222L6.83333 1H1M12.6667 35C12.6667 36.1046 11.7961 37 10.7222 37C9.64834 37 8.77778 36.1046 8.77778 35C8.77778 33.8954 9.64834 33 10.7222 33C11.7961 33 12.6667 33.8954 12.6667 35ZM34.0556 35C34.0556 36.1046 33.185 37 32.1111 37C31.0372 37 30.1667 36.1046 30.1667 35C30.1667 33.8954 31.0372 33 32.1111 33C33.185 33 34.0556 33.8954 34.0556 35Z" stroke="#4DBD7A" stroke-width="2" stroke-linecap="round" stroke-linejoin="round"/>
</svg>
