<svg width="60" height="60" viewBox="0 0 60 60" fill="none" xmlns="http://www.w3.org/2000/svg">
<path fill-rule="evenodd" clip-rule="evenodd" d="M30 55C18.2149 55 12.3223 55 8.66117 51.3387C5 47.6777 5 41.785 5 30C5 18.2149 5 12.3223 8.66117 8.66117C12.3223 5 18.2149 5 30 5C41.785 5 47.6777 5 51.3387 8.66117C55 12.3223 55 18.2149 55 30C55 41.785 55 47.6777 51.3387 51.3387C47.6777 55 41.785 55 30 55ZM22.4241 22.4242C23.1564 21.6919 24.3435 21.6919 25.0758 22.4242L30 27.3485L34.924 22.4242C35.6562 21.692 36.8435 21.692 37.5758 22.4242C38.308 23.1565 38.308 24.3437 37.5758 25.0758L32.6515 30L37.5758 34.9242C38.308 35.6562 38.308 36.8435 37.5758 37.5758C36.8435 38.308 35.6562 38.308 34.924 37.5758L30 32.6518L25.0758 37.5758C24.3436 38.308 23.1564 38.308 22.4242 37.5758C21.6919 36.8435 21.6919 35.6565 22.4242 34.9242L27.3482 30L22.4241 25.0758C21.6919 24.3436 21.6919 23.1564 22.4241 22.4242Z" fill="white"/>
</svg>
