<svg width="35" height="35" viewBox="0 0 35 35" fill="none" xmlns="http://www.w3.org/2000/svg">
<path d="M34.4306 0.569429C33.6714 -0.18981 32.4404 -0.18981 31.6812 0.569429L17.5 14.7506L3.31883 0.569429C2.55961 -0.18981 1.32865 -0.18981 0.56943 0.569429C-0.18981 1.32865 -0.18981 2.55961 0.56943 3.31883L14.7506 17.5L0.569469 31.681C-0.189771 32.4404 -0.189771 33.6712 0.569469 34.4306C1.32869 35.1898 2.55965 35.1898 3.31887 34.4306L17.5 20.2494L31.6812 34.4306C32.4404 35.1898 33.6714 35.1898 34.4306 34.4306C35.1898 33.6712 35.1898 32.4404 34.4306 31.6812L20.2494 17.5L34.4306 3.31883C35.1898 2.55961 35.1898 1.32865 34.4306 0.569429Z" fill="white"/>
</svg>
