<svg width="50" height="50" viewBox="0 0 50 50" fill="none" xmlns="http://www.w3.org/2000/svg">
<path d="M44.3331 13.3337L24.4581 33.2086C22.479 35.1877 16.6039 36.1044 15.2914 34.7919C13.9789 33.4794 14.8747 27.6044 16.8539 25.6252L36.7498 5.72943C37.2404 5.19414 37.8344 4.76385 38.496 4.46448C39.1575 4.1651 39.8729 4.00281 40.599 3.98752C41.3248 3.97225 42.0465 4.1042 42.72 4.37548C43.3935 4.64675 44.0052 5.05175 44.5179 5.56591C45.0306 6.08008 45.434 6.69279 45.7033 7.36708C45.9727 8.04139 46.1029 8.76327 46.0856 9.4892C46.0683 10.2151 45.904 10.9301 45.6029 11.5908C45.3017 12.2516 44.8698 12.8445 44.3331 13.3337Z" stroke="white" stroke-width="3.75" stroke-linecap="round" stroke-linejoin="round"/>
<path d="M22.9167 8.3335H12.5001C10.2899 8.3335 8.17046 9.21145 6.60764 10.7743C5.04485 12.3371 4.16675 14.4567 4.16675 16.6668V37.5002C4.16675 39.7104 5.04485 41.83 6.60764 43.3927C8.17046 44.9556 10.2899 45.8335 12.5001 45.8335H35.4167C40.0209 45.8335 41.6667 42.0835 41.6667 37.5002V27.0835" stroke="white" stroke-width="3.75" stroke-linecap="round" stroke-linejoin="round"/>
</svg>
