<svg width="46" height="51" viewBox="0 0 46 51" fill="none" xmlns="http://www.w3.org/2000/svg">
<g clip-path="url(#clip0_57_28)">
<path d="M24.7106 3.84766C13.3426 3.84766 4.0415 14.3908 4.0415 27.3761C4.0415 39.1168 11.6064 48.8615 21.4862 50.6226V34.1857H16.2362V27.3761H21.4862V22.1866C21.4862 16.2928 24.5659 13.0524 29.2991 13.0524C31.552 13.0524 33.9083 13.4985 33.9083 13.4985V19.2984H31.304C28.741 19.2984 27.9349 21.1065 27.9349 22.9616V27.3761H33.6809L32.7508 34.1857H27.9349V50.6226C32.8054 49.7487 37.2405 46.9255 40.4395 42.6624C43.6384 38.3996 45.3908 32.9778 45.3796 27.3761C45.3796 14.3908 36.0785 3.84766 24.7106 3.84766Z" fill="#4DBD7A"/>
</g>
<defs>
<clipPath id="clip0_57_28">
<rect width="45.2751" height="50.4677" fill="white" transform="translate(0.104492 0.154785)"/>
</clipPath>
</defs>
</svg>
