<svg width="40" height="40" viewBox="0 0 40 40" fill="none" xmlns="http://www.w3.org/2000/svg">
<path d="M20 28.3335V18.3335" stroke="#268462" stroke-width="3.75" stroke-linecap="round"/>
<path d="M20 11.6667C20.9205 11.6667 21.6666 12.4129 21.6666 13.3333C21.6666 14.2538 20.9205 15 20 15C19.0795 15 18.3333 14.2538 18.3333 13.3333C18.3333 12.4129 19.0795 11.6667 20 11.6667Z" fill="#268462"/>
<path d="M11.6666 5.5632C14.1181 4.14511 16.9643 3.3335 20 3.3335C29.2046 3.3335 36.6666 10.7954 36.6666 20.0002C36.6666 29.2048 29.2046 36.6668 20 36.6668C10.7952 36.6668 3.33331 29.2048 3.33331 20.0002C3.33331 16.9645 4.14493 14.1183 5.56301 11.6668" stroke="#268462" stroke-width="3.75" stroke-linecap="round"/>
</svg>
