<svg width="44" height="48" viewBox="0 0 44 48" fill="none" xmlns="http://www.w3.org/2000/svg">
<path fill-rule="evenodd" clip-rule="evenodd" d="M21.9359 35.7267C27.8562 35.7267 32.6555 30.4007 32.6555 23.8308C32.6555 17.2608 27.8562 11.9348 21.9359 11.9348C16.0156 11.9348 11.2163 17.2608 11.2163 23.8308C11.2163 30.4007 16.0156 35.7267 21.9359 35.7267ZM21.9359 31.7614C25.8827 31.7614 29.0823 28.2107 29.0823 23.8308C29.0823 19.4508 25.8827 15.9001 21.9359 15.9001C17.9891 15.9001 14.7895 19.4508 14.7895 23.8308C14.7895 28.2107 17.9891 31.7614 21.9359 31.7614Z" fill="#4DBD7A"/>
<path d="M32.6557 9.95215C31.669 9.95215 30.8691 10.8398 30.8691 11.9348C30.8691 13.0298 31.669 13.9175 32.6557 13.9175C33.6425 13.9175 34.4423 13.0298 34.4423 11.9348C34.4423 10.8398 33.6425 9.95215 32.6557 9.95215Z" fill="#4DBD7A"/>
<path fill-rule="evenodd" clip-rule="evenodd" d="M3.45181 8.5168C2.28345 11.0615 2.28345 14.3927 2.28345 21.055V26.6065C2.28345 33.2688 2.28345 36.6001 3.45181 39.1446C4.47954 41.3831 6.11942 43.2029 8.13646 44.3434C10.4295 45.64 13.4313 45.64 19.4348 45.64H24.4373C30.4408 45.64 33.4427 45.64 35.7356 44.3434C37.7526 43.2029 39.3926 41.3831 40.4202 39.1446C41.5887 36.6001 41.5887 33.2688 41.5887 26.6065V21.055C41.5887 14.3927 41.5887 11.0615 40.4202 8.5168C39.3926 6.27842 37.7526 4.45857 35.7356 3.31807C33.4427 2.02148 30.4408 2.02148 24.4373 2.02148H19.4348C13.4313 2.02148 10.4295 2.02148 8.13646 3.31807C6.11942 4.45857 4.47954 6.27842 3.45181 8.5168ZM24.4373 5.98681H19.4348C16.3741 5.98681 14.2934 5.9899 12.6852 6.1357C11.1186 6.27774 10.3175 6.53519 9.75866 6.85119C8.41397 7.61154 7.32071 8.82477 6.63555 10.317C6.3508 10.9372 6.11881 11.8262 5.99082 13.5647C5.85944 15.3494 5.85665 17.6584 5.85665 21.055V26.6065C5.85665 30.0032 5.85944 32.312 5.99082 34.0968C6.11881 35.8354 6.3508 36.7244 6.63555 37.3446C7.32071 38.8367 8.41397 40.0499 9.75866 40.8103C10.3175 41.1263 11.1186 41.3839 12.6852 41.5258C14.2934 41.6715 16.3741 41.6747 19.4348 41.6747H24.4373C27.4981 41.6747 29.5786 41.6715 31.1869 41.5258C32.7536 41.3839 33.5547 41.1263 34.1135 40.8103C35.4581 40.0499 36.5513 38.8367 37.2365 37.3446C37.5213 36.7244 37.7534 35.8354 37.8813 34.0968C38.0126 32.312 38.0155 30.0032 38.0155 26.6065V21.055C38.0155 17.6584 38.0126 15.3494 37.8813 13.5647C37.7534 11.8262 37.5213 10.9372 37.2365 10.317C36.5513 8.82477 35.4581 7.61154 34.1135 6.85119C33.5547 6.53519 32.7536 6.27774 31.1869 6.1357C29.5786 5.9899 27.4981 5.98681 24.4373 5.98681Z" fill="#4DBD7A"/>
</svg>
