<svg width="30" height="27" viewBox="0 0 30 27" fill="none" xmlns="http://www.w3.org/2000/svg">
<path d="M15 17.9836C17.7614 17.9836 20 16.0019 20 13.5574C20 11.1129 17.7614 9.13116 15 9.13116C12.2386 9.13116 10 11.1129 10 13.5574C10 16.0019 12.2386 17.9836 15 17.9836Z" fill="white"/>
<path d="M16.25 4.78129V2.49182H13.75V4.78129C11.5504 5.02991 9.50621 5.91791 7.93821 7.30598C6.37021 8.69404 5.3671 10.5036 5.08625 12.4508H2.5V14.664H5.08625C5.36669 16.6113 6.36967 18.4211 7.93775 19.8092C9.50582 21.1974 11.5502 22.0852 13.75 22.3335V24.623H16.25V22.3335C18.4499 22.0854 20.4944 21.1976 22.0625 19.8094C23.6306 18.4213 24.6335 16.6114 24.9138 14.664H27.5V12.4508H24.9138C24.6333 10.5035 23.6303 8.6937 22.0623 7.30556C20.4942 5.91743 18.4498 5.02955 16.25 4.78129ZM15 20.1967C10.8638 20.1967 7.5 17.219 7.5 13.5574C7.5 9.8958 10.8638 6.91805 15 6.91805C19.1363 6.91805 22.5 9.8958 22.5 13.5574C22.5 17.219 19.1363 20.1967 15 20.1967Z" fill="white"/>
</svg>
