<svg width="33" height="30" viewBox="0 0 33 30" fill="none" xmlns="http://www.w3.org/2000/svg">
<path d="M30 8.14286L24.6588 11.5341C21.681 13.4247 20.1921 14.3702 18.6153 14.7408C17.2197 15.0687 15.7803 15.0687 14.3847 14.7408C12.808 14.3702 11.319 13.4247 8.3412 11.5341L3 8.14286M7.8 27H25.2C26.8801 27 27.7203 27 28.362 26.6263C28.9265 26.2977 29.3854 25.7731 29.673 25.128C30 24.3946 30 23.4345 30 21.5143V8.48571C30 6.56554 30 5.60544 29.673 4.87203C29.3854 4.2269 28.9265 3.70239 28.362 3.3737C27.7203 3 26.8801 3 25.2 3H7.8C6.11985 3 5.27976 3 4.63803 3.3737C4.07354 3.70239 3.61459 4.2269 3.32698 4.87203C3 5.60544 3 6.56553 3 8.48571V21.5143C3 23.4345 3 24.3946 3.32698 25.128C3.61459 25.7731 4.07354 26.2977 4.63803 26.6263C5.27976 27 6.11983 27 7.8 27Z" stroke="#4DBD7A" stroke-width="5" stroke-linecap="round" stroke-linejoin="round"/>
</svg>
