<svg width="108" height="108" viewBox="0 0 108 108" fill="none" xmlns="http://www.w3.org/2000/svg">
<g filter="url(#filter0_d_329_2)">
<circle cx="54" cy="50" r="50" fill="white"/>
</g>
<path d="M43.5663 49.025V49M63.5663 49.025V49M43.5663 41.5V39C43.5663 36.3478 44.6199 33.8043 46.4953 31.9289C48.3706 30.0536 50.9141 29 53.5663 29C56.2186 29 58.7621 30.0536 60.6373 31.9289C62.5128 33.8043 63.5663 36.3478 63.5663 39V41.5M43.5663 41.5H40.667C38.0666 41.5 35.9002 43.4933 35.6843 46.0848L34.0176 66.0848C33.7747 68.9998 36.0751 71.5 39.0003 71.5H68.1323C71.0576 71.5 73.3581 68.9998 73.1151 66.0848L71.4483 46.0848C71.2323 43.4933 69.0661 41.5 66.4656 41.5H63.5663M43.5663 41.5H63.5663" stroke="#4DBD7A" stroke-width="3.75" stroke-linecap="round" stroke-linejoin="round"/>
<defs>
<filter id="filter0_d_329_2" x="0" y="0" width="108" height="108" filterUnits="userSpaceOnUse" color-interpolation-filters="sRGB">
<feFlood flood-opacity="0" result="BackgroundImageFix"/>
<feColorMatrix in="SourceAlpha" type="matrix" values="0 0 0 0 0 0 0 0 0 0 0 0 0 0 0 0 0 0 127 0" result="hardAlpha"/>
<feOffset dy="4"/>
<feGaussianBlur stdDeviation="2"/>
<feComposite in2="hardAlpha" operator="out"/>
<feColorMatrix type="matrix" values="0 0 0 0 0 0 0 0 0 0 0 0 0 0 0 0 0 0 0.06 0"/>
<feBlend mode="normal" in2="BackgroundImageFix" result="effect1_dropShadow_329_2"/>
<feBlend mode="normal" in="SourceGraphic" in2="effect1_dropShadow_329_2" result="shape"/>
</filter>
</defs>
</svg>
