<svg width="51" height="42" viewBox="0 0 51 42" fill="none" xmlns="http://www.w3.org/2000/svg">
<path d="M32.4329 0.913574H25.0618L16.2165 9.02669L20.6391 11.393L25.0618 7.33646L34.2756 15.7876L37.5926 19.5061L42.3838 20.1822L44.5952 16.4637V3.61795L40.9096 0.913574H32.4329Z" fill="#FDC040"/>
<path d="M47.6133 7.26096H45.6192L45.6211 3.99111C45.6223 1.79587 43.6764 0.00892445 41.2826 0.00784946L26.1482 0H26.1463C25.2848 0 24.4748 0.307643 23.8654 0.866528L1.27119 21.5904C0.451355 22.3424 0 23.342 0 24.4056C0 25.4692 0.451355 26.4688 1.27119 27.2208L15.934 40.6698C16.7803 41.446 17.8919 41.834 19.0032 41.834C20.1149 41.834 21.2265 41.446 22.0728 40.6698L36.2983 27.6219C36.6874 27.265 36.6874 26.6865 36.2983 26.33C35.9092 25.973 35.2784 25.973 34.8894 26.33L20.6639 39.3779C19.7483 40.2177 18.2585 40.2177 17.3429 39.3779L2.68011 25.9288C2.23654 25.522 1.99219 24.9809 1.99219 24.4056C1.99219 23.8303 2.23654 23.2892 2.68011 22.8824L25.2739 2.15883C25.507 1.94505 25.8167 1.82728 26.1463 1.82728H26.1471L41.2815 1.83513C42.5764 1.83548 43.6297 2.80266 43.6289 3.99039L43.6243 11.6464H39.1376C38.7512 11.6464 38.4013 11.5015 38.1484 11.2681C38.5652 11.1043 38.9559 10.8676 39.2955 10.5561C40.727 9.24272 40.727 7.1064 39.2955 5.79343C37.8636 4.48005 35.5345 4.48005 34.1026 5.79343C32.6711 7.1064 32.6711 9.24272 34.1026 10.5561C34.6333 11.0429 35.2878 11.3487 35.9738 11.4748C36.4613 12.6421 37.6952 13.4737 39.1376 13.4737H43.6231L43.6204 17.8534C43.6204 18.1557 43.492 18.4395 43.2589 18.6529L40.5243 21.1614C40.1352 21.5183 40.1352 22.0969 40.5243 22.4538C40.913 22.8103 41.5437 22.8103 41.9328 22.4538L44.6678 19.9452C45.2763 19.3866 45.6122 18.6443 45.6125 17.8545L45.6153 13.4737H47.6133C49.4806 13.4737 51 12.0804 51 10.3673C51 8.65459 49.4806 7.26096 47.6133 7.26096ZM35.5115 7.08537C35.8391 6.78485 36.2691 6.63496 36.6994 6.63496C37.1294 6.63496 37.5593 6.78519 37.887 7.08537C37.9905 7.18064 38.076 7.2859 38.1469 7.39692C37.0535 7.7042 36.1944 8.50686 35.8804 9.51829C35.7485 9.45082 35.6236 9.36692 35.5115 9.26415C34.8566 8.66317 34.8566 7.68602 35.5115 7.08537ZM47.6133 11.6464H45.6164L45.618 9.08823H47.6133C48.3822 9.08823 49.0078 9.6621 49.0078 10.3673C49.0078 11.0725 48.3822 11.6464 47.6133 11.6464Z" fill="#3BB77E"/>
<path d="M16.0784 23.0515C16.201 23.4558 16.6014 23.7203 17.0372 23.7203C17.1259 23.7203 17.2158 23.7096 17.3049 23.6868L27.5304 21.0761C28.0603 20.9408 28.3704 20.4369 28.223 19.9508C28.0755 19.4651 27.5265 19.1807 26.9962 19.3159L16.7706 21.9262C16.2411 22.0618 15.931 22.5654 16.0784 23.0515Z" fill="#3BB77E"/>
<path d="M20.5794 24.2572C20.0245 24.7662 19.7191 25.4425 19.7191 26.1623C19.7191 26.8818 20.0245 27.5581 20.5794 28.0671C21.1522 28.5921 21.9039 28.8547 22.656 28.8547C23.4082 28.8547 24.1603 28.5921 24.733 28.0671C25.8781 27.0167 25.8781 25.3075 24.733 24.2572C23.5879 23.2069 21.7245 23.2069 20.5794 24.2572ZM23.3241 26.7747C22.9556 27.1127 22.3564 27.1127 21.988 26.7747C21.8094 26.6113 21.7113 26.3936 21.7113 26.162C21.7113 25.9307 21.8097 25.713 21.988 25.5492C22.1724 25.3803 22.4144 25.2958 22.656 25.2958C22.8981 25.2958 23.1401 25.3803 23.3241 25.5492C23.6926 25.8871 23.6926 26.4371 23.3241 26.7747Z" fill="#3BB77E"/>
<path d="M25.2265 18.8174C26.3716 17.7667 26.3716 16.0579 25.2265 15.0076C24.6717 14.4987 23.9339 14.2185 23.1495 14.2185C22.3651 14.2185 21.6274 14.4987 21.0729 15.0076C19.9278 16.0579 19.9278 17.7667 21.0729 18.8174C21.6456 19.3423 22.3974 19.605 23.1495 19.605C23.9016 19.605 24.6538 19.3423 25.2265 18.8174ZM22.4814 16.2995C22.66 16.1357 22.8974 16.0458 23.1495 16.0458C23.402 16.0458 23.6394 16.1357 23.8176 16.2995C24.1861 16.6375 24.1861 17.1871 23.8176 17.5251C23.4495 17.8631 22.8499 17.8631 22.4814 17.5251C22.1133 17.1871 22.1133 16.6375 22.4814 16.2995Z" fill="#3BB77E"/>
<path d="M9.90714 21.1635C9.51809 20.8066 8.88735 20.8066 8.49823 21.1635L5.66792 23.7595C5.48115 23.9308 5.3761 24.1631 5.3761 24.4054C5.3761 24.6478 5.48115 24.8801 5.66792 25.0514L18.2993 36.6372C18.4934 36.8152 18.7487 36.9045 19.0035 36.9045C19.2584 36.9045 19.5132 36.8152 19.7078 36.6372L38.5931 19.3148C38.9822 18.9579 38.9822 18.3793 38.5931 18.0225L25.9622 6.4371C25.7754 6.26578 25.5221 6.16943 25.2579 6.16943C24.9937 6.16943 24.7404 6.26578 24.5536 6.4371L14.1331 15.995C13.7441 16.3519 13.7441 16.9304 14.1331 17.2872C14.5219 17.6438 15.1526 17.6438 15.5417 17.2872L25.2579 8.37539L36.4803 18.6688L19.0035 34.6989L7.78109 24.4054L9.90714 22.4554C10.2959 22.0985 10.2963 21.5203 9.90714 21.1635Z" fill="#3BB77E"/>
<path d="M38.4115 23.478C38.1492 23.478 37.8924 23.5758 37.7072 23.7457C37.522 23.9156 37.4154 24.1515 37.4154 24.3916C37.4154 24.6318 37.522 24.8677 37.7072 25.0376C37.8924 25.2075 38.1492 25.3053 38.4115 25.3053C38.6733 25.3053 38.9301 25.2075 39.1157 25.0376C39.301 24.8677 39.4076 24.6318 39.4076 24.3916C39.4076 24.1515 39.301 23.9156 39.1157 23.7457C38.9301 23.5758 38.6733 23.478 38.4115 23.478Z" fill="#3BB77E"/>
<path d="M12.7239 19.8709C12.9103 19.7011 13.0161 19.4662 13.0161 19.225C13.0161 18.9847 12.9103 18.7499 12.7239 18.5789C12.5387 18.4091 12.2826 18.3113 12.02 18.3113C11.7577 18.3113 11.5009 18.4091 11.3158 18.5789C11.1302 18.7488 11.024 18.9847 11.024 19.225C11.024 19.4662 11.1302 19.7011 11.3158 19.8709C11.5018 20.0419 11.7577 20.1386 12.02 20.1386C12.2826 20.1386 12.5387 20.0419 12.7239 19.8709Z" fill="#3BB77E"/>
</svg>
