<svg width="51" height="43" viewBox="0 0 51 43" fill="none" xmlns="http://www.w3.org/2000/svg">
<g clip-path="url(#clip0_93_60)">
<mask id="mask0_93_60" style="mask-type:luminance" maskUnits="userSpaceOnUse" x="0" y="0" width="51" height="43">
<path d="M50.8623 0H0.551422V42.4189H50.8623V0Z" fill="white"/>
</mask>
<g mask="url(#mask0_93_60)">
<path d="M10.5643 10.1357V21.5C13.1143 20.7833 19.38 20.64 24.0429 25.8C25.1357 27.7453 26.8843 32.25 25.1357 34.7072L30.2357 37.1643V18.7357L10.5643 10.1357Z" fill="#FDC040"/>
<path d="M50.3529 9.17438L30.7586 0.102674C30.4642 -0.0335738 30.1072 -0.0335738 29.8128 0.102674L22.4274 3.52184C22.2715 3.55646 22.126 3.62249 22.0055 3.71731L10.2188 9.17438C9.90453 9.31966 9.70913 9.59799 9.70913 9.90059V20.8723C7.72086 21.3966 5.89874 22.3212 4.38372 23.5989C0.434762 26.9281 -0.572053 32.0058 1.87839 36.2341C2.11637 36.6451 2.7048 36.8157 3.19228 36.6147C3.68014 36.4137 3.88204 35.9176 3.64406 35.5066C1.56211 31.9139 2.41768 27.5996 5.77323 24.7705C7.87168 23.0012 10.6614 22.0267 13.6289 22.0267C16.5964 22.0267 19.3862 23.0012 21.4846 24.7705C23.5827 26.5394 24.7385 28.8916 24.7385 31.3936C24.7385 33.8956 23.5827 36.2477 21.4842 38.017C18.1287 40.8462 13.0117 41.5676 8.7507 39.8122C8.26321 39.6112 7.67474 39.7818 7.43679 40.1927C7.19843 40.6041 7.40036 41.1002 7.88821 41.3008C9.71489 42.0537 11.6748 42.4193 13.6205 42.4193C17.0148 42.419 20.3638 41.3051 22.8741 39.1886C24.0253 38.218 24.935 37.0982 25.5787 35.881L29.8128 37.8413C29.9602 37.9096 30.123 37.9435 30.2857 37.9435C30.4484 37.9435 30.6116 37.9096 30.7586 37.8413L50.3529 28.7699C50.6673 28.6243 50.8626 28.3459 50.8626 28.0436V22.2859C50.8626 21.8284 50.4228 21.4575 49.88 21.4575C49.3373 21.4575 48.8974 21.8284 48.8974 22.2859V27.5534L31.2714 35.7137V19.461L37.0886 16.7677V21.037C37.0886 21.3303 37.272 21.6014 37.571 21.7503C37.7253 21.8271 37.8981 21.8655 38.0712 21.8655C38.2339 21.8655 38.3971 21.8316 38.5448 21.7629L42.7437 19.8144C43.0577 19.6687 43.2523 19.3908 43.2523 19.0888V13.914L48.8974 11.3006V15.6583C48.8974 16.1159 49.3373 16.4868 49.88 16.4868C50.4228 16.4868 50.8626 16.1159 50.8626 15.6583V9.90059C50.8626 9.5983 50.6673 9.31966 50.3529 9.17438ZM30.2857 1.7739L47.8384 9.90059L42.3015 12.4641L24.7488 4.33739L30.2857 1.7739ZM30.2857 18.027L12.7331 9.90059L18.473 7.24294L36.0261 15.3693L30.2857 18.027ZM38.0673 14.4243L20.5146 6.29793L22.7071 5.28271L40.2602 13.4091L38.0673 14.4243ZM22.8741 23.5989C20.4045 21.5167 17.1211 20.37 13.6289 20.37C12.9683 20.37 12.3158 20.4111 11.6744 20.4917V11.3006L29.3065 19.4639V35.7166L26.2462 34.2998C26.5475 33.3645 26.7034 32.389 26.7034 31.3936C26.7034 28.4492 25.3434 25.6809 22.8741 23.5989ZM41.2874 18.5991L39.0538 19.6357V15.858L41.2874 14.824V18.5991Z" fill="#3BB77E"/>
<path d="M49.8796 18.1392C49.6213 18.1392 49.3676 18.2279 49.1849 18.3819C49.0022 18.5359 48.897 18.7496 48.897 18.9676C48.897 19.1855 49.0022 19.3991 49.1849 19.5531C49.3676 19.7075 49.6213 19.7958 49.8796 19.7958C50.1379 19.7958 50.3916 19.7075 50.5744 19.5531C50.7571 19.3991 50.8623 19.1855 50.8623 18.9676C50.8623 18.7496 50.7571 18.5359 50.5744 18.3819C50.3916 18.2279 50.1379 18.1392 49.8796 18.1392Z" fill="#3BB77E"/>
<path d="M10.3244 32.2217C10.5758 32.2217 10.8276 32.1408 11.0191 31.9793C11.4029 31.6556 11.4029 31.131 11.0191 30.8074L10.3386 30.2333H16.1461C17.5548 30.2333 18.7009 31.1996 18.7009 32.3874C18.7009 33.5751 17.5548 34.5415 16.1461 34.5415H12.7049C12.1622 34.5415 11.7223 34.9123 11.7223 35.37C11.7223 35.8272 12.1622 36.1981 12.7049 36.1981H16.1461C18.6384 36.1981 20.6662 34.4887 20.6662 32.3874C20.6662 30.286 18.6384 28.5766 16.1461 28.5766H10.3386L11.0191 28.0025C11.4029 27.6789 11.4029 27.1543 11.0191 26.8307C10.6356 26.5073 10.0134 26.5073 9.62959 26.8307L7.27126 28.819C6.88781 29.1426 6.88781 29.6672 7.27126 29.9909L9.62959 31.9789C9.8215 32.1408 10.0729 32.2217 10.3244 32.2217Z" fill="#3BB77E"/>
<path d="M5.0788 39.4321C4.79936 39.4321 4.52184 39.3318 4.328 39.1373L4.32609 39.1354C3.97679 38.7852 4.03053 38.2628 4.44584 37.9683C4.86116 37.6735 5.48106 37.7188 5.83036 38.069C6.17927 38.4195 6.12668 38.9428 5.71136 39.2373C5.52674 39.368 5.30219 39.4321 5.0788 39.4321Z" fill="#3BB77E"/>
</g>
</g>
<defs>
<clipPath id="clip0_93_60">
<rect width="51" height="43" fill="white"/>
</clipPath>
</defs>
</svg>
