<svg width="51" height="49" viewBox="0 0 51 49" fill="none" xmlns="http://www.w3.org/2000/svg">
<g clip-path="url(#clip0_93_47)">
<mask id="mask0_93_47" style="mask-type:luminance" maskUnits="userSpaceOnUse" x="0" y="0" width="51" height="49">
<path d="M50.5471 0H0.137848V48.4324H50.5471V0Z" fill="white"/>
</mask>
<g mask="url(#mask0_93_47)">
<path d="M32.4214 23.1001L34.9714 19.2501L38.6143 17.5001C39.1 17.3834 40.1443 17.2201 40.4357 17.5001C40.7271 17.7801 44.9286 23.2168 46.9928 25.9001L48.8143 29.0501C48.45 29.7501 47.6486 31.2201 47.3571 31.5001C47.0657 31.7801 44.3214 33.0168 42.9857 33.6001C42.2571 33.7168 40.7271 33.9501 40.4357 33.9501C40.1443 33.9501 36.6714 29.5168 34.9714 27.3001L33.0589 24.1501L32.4214 23.1001Z" fill="#FDC040"/>
<path d="M40.4357 33.9499C40.1443 33.9499 36.6714 29.5166 34.9714 27.2999L33.0589 24.1499H31.6928H28.05C27.6857 24.1499 25.8643 24.8499 25.1357 25.1999L22.95 26.2499C22.2214 26.5999 21.4928 27.2999 21.1286 27.6499C20.7643 27.9999 20.0357 29.0499 20.0357 29.3999C20.0357 29.7499 20.0357 30.4499 20.4 30.7999C20.7643 31.1499 21.4928 31.4999 21.8571 31.4999H24.0428C24.6257 31.4999 26.2286 30.7999 26.9571 30.4499C27.2 30.5666 27.7586 30.8699 28.05 31.1499C28.3414 31.4299 30.8428 33.1332 32.0571 33.9499L34.9714 36.7499C35.4572 36.9832 36.5014 37.3799 36.7928 37.0999C37.0843 36.8199 38.1285 36.0499 38.6143 35.6999L39.7071 34.9999L40.4357 33.9499Z" fill="#FDC040"/>
<path d="M11.2928 37.7999C11.2928 38.3599 12.2643 39.4332 12.75 39.8999L15.3 41.9999L16.7571 43.0499L18.2143 44.4499C18.7 44.6832 19.6714 45.2199 19.6714 45.4999C19.6714 45.7799 21.1286 46.0832 21.8571 46.1999C22.2214 45.9666 23.0228 45.4299 23.3143 45.1499C23.6786 44.7999 23.6786 44.7999 23.6786 44.0999C23.6786 43.3999 23.6786 42.6999 23.3143 41.9999C22.95 41.2999 22.95 39.8999 22.5857 39.5499C22.2214 39.1999 20.7643 38.4999 20.7643 38.1499C20.7643 37.7999 19.6714 36.3999 19.3071 36.0499C18.9428 35.6999 18.2143 34.2999 17.85 33.9499C17.4857 33.5999 16.3928 32.8999 15.6643 33.2499C14.9357 33.5999 12.75 35.3499 12.3857 35.6999C12.0943 35.9799 11.5357 37.2166 11.2928 37.7999Z" fill="#FDC040"/>
<path d="M18.2143 3.5C20.4 6.41667 26.6657 12.11 34.2428 11.55L32.7857 15.75L30.6 17.5L23.6786 19.6L18.2143 17.85L14.9357 12.25L15.3 7.7L17.1214 4.55L18.2143 3.5Z" fill="#FDC040"/>
<path d="M24.5276 12.5825C24.143 12.5825 23.6714 12.5284 23.3485 12.1827C23.2362 12.0613 23.1378 11.9478 23.0425 11.8532C22.2732 11.0754 20.9482 12.1558 21.7511 13.1656L21.9448 13.406C22.0711 13.5574 22.2985 13.7328 22.6241 13.9327C22.9414 14.127 23.2951 14.2674 23.6881 14.3512V15.6854C23.6881 16.1444 24.0782 16.5225 24.5556 16.5225C25.0357 16.5225 25.4427 16.1444 25.4427 15.6854V14.3431C26.0716 14.2028 26.6106 13.9083 27.0513 13.4629C27.4947 13.0171 27.7165 12.4258 27.7165 11.6885C27.7165 11.1863 27.6156 10.7677 27.4134 10.43C27.2113 10.0952 26.9642 9.86032 26.6694 9.72788C26.3719 9.59551 26.0491 9.47938 25.6925 9.37956C25.3388 9.27967 25.016 9.20939 24.7184 9.16627C24.4237 9.1256 24.1766 9.03915 23.9744 8.91238C23.7723 8.7826 23.6713 8.61523 23.6713 8.40726C23.6713 7.41354 25.1872 7.53499 25.8553 8.07511C26.8406 8.87178 27.9439 7.41354 26.8013 6.58987L26.6694 6.47636C26.5795 6.40901 26.4223 6.3252 26.1949 6.21982C25.9703 6.11463 25.7176 6.03621 25.4426 5.97945V5.17209V4.82105C25.4426 4.36189 25.0523 3.98389 24.5723 3.98389C24.095 3.98389 23.7021 4.3618 23.7021 4.82105V5.96602C23.0619 6.08758 22.5314 6.39283 22.1637 6.84367C21.7932 7.30287 21.6051 7.81065 21.6051 8.37751C21.6051 8.94745 21.7428 9.41463 22.0177 9.78465C22.2928 10.1544 22.627 10.4137 23.0228 10.565C23.4158 10.7163 23.8087 10.8379 24.2018 10.9268C24.5975 11.0188 24.9317 11.1186 25.2067 11.2348C25.4819 11.3482 25.6194 11.5076 25.6194 11.7155C25.6195 12.2934 25.2546 12.5825 24.5276 12.5825Z" fill="#3BB77E"/>
<path d="M49.5064 27.3235L41.4164 17.3676C40.8715 16.6953 40.0453 16.3096 39.1499 16.3096C38.5179 16.3096 37.9196 16.5024 37.4175 16.8684L32.1231 20.746C31.5171 21.1897 31.1299 21.8337 31.0328 22.5592C31.0183 22.6674 31.0115 22.7752 31.0103 22.8825C28.992 22.7356 26.9072 22.8833 24.8827 24.1476L24.7919 24.2042L19.6704 23.4517C19.6809 23.2814 19.6752 23.109 19.6518 22.9359C19.5542 22.2121 19.1677 21.5696 18.5628 21.1266L13.2671 17.2525C12.0264 16.3409 10.2324 16.5623 9.26764 17.7474L7.33912 20.1213C7.0016 20.5365 7.07859 21.136 7.51084 21.4601C7.9431 21.7843 8.56705 21.7104 8.90445 21.2951L10.8324 18.9221C11.1243 18.5636 11.6868 18.493 12.0625 18.7692L17.3595 22.6441C17.5388 22.7755 17.6536 22.9662 17.6826 23.1813C17.7116 23.3967 17.651 23.6099 17.5128 23.7805L9.42137 33.738C9.13147 34.0957 8.56822 34.1655 8.19307 33.8922L2.89846 30.0142C2.71809 29.8822 2.6028 29.6908 2.57395 29.4754C2.5453 29.261 2.60585 29.0492 2.74516 28.8782L4.12078 27.1851C4.45819 26.7697 4.3813 26.1703 3.94898 25.8462C3.51676 25.5219 2.89285 25.5959 2.55534 26.0112L1.18051 27.7034C0.712152 28.2787 0.507561 28.9943 0.604441 29.7185C0.70142 30.4439 1.08874 31.0879 1.69464 31.5316L6.99096 35.4109C7.5064 35.7865 8.11555 35.9682 8.72071 35.9682C9.07071 35.9682 9.41897 35.9064 9.74734 35.7872L10.4328 36.6892C10.0602 37.3421 10.0021 38.1265 10.3016 38.8835C10.7295 39.9659 11.7394 40.6997 12.832 40.7347C12.8658 40.8889 12.9128 41.0429 12.9769 41.1955C13.4173 42.2439 14.4229 42.9575 15.5034 43.0045C15.5084 43.0317 15.5121 43.059 15.5179 43.0863C15.7235 44.0462 16.49 44.866 17.4705 45.1748C17.7202 45.2535 17.9721 45.2939 18.2215 45.301C18.317 45.6875 18.5166 46.0608 18.8236 46.3885C19.302 46.8994 20.0004 47.2263 20.7665 47.2262C21.323 47.2262 21.9151 47.0527 22.4844 46.653L23.6086 47.6627C24.1813 48.1762 24.9022 48.4325 25.6162 48.4325C26.3405 48.4324 27.0574 48.1687 27.6049 47.6421C27.9314 47.3282 28.1843 46.9547 28.348 46.5614C28.627 46.6429 28.8995 46.6814 29.161 46.6814C29.8974 46.6814 30.5472 46.3826 31.0127 45.9219C31.3937 45.5449 31.6664 45.0431 31.787 44.5082C31.8273 44.5101 31.8676 44.5117 31.908 44.5121C31.918 44.5122 31.9277 44.5122 31.9377 44.5122C32.7208 44.5122 33.4722 44.2207 34.0029 43.7102C34.3747 43.3526 34.6304 42.9124 34.7525 42.4319C34.9419 42.4674 35.1321 42.4859 35.3219 42.4859C35.5609 42.4859 35.7993 42.4574 36.0341 42.3996C36.9915 42.1639 37.7309 41.445 37.9635 40.5233C38.1782 39.6729 37.957 38.7771 37.3548 37.9627C38.9141 36.7574 39.5448 36.1637 40.2571 35.0535C40.7437 35.3974 41.336 35.5868 41.962 35.5868C42.5959 35.5868 43.1953 35.3926 43.6937 35.0265L48.9915 31.1509C49.5959 30.7083 49.9825 30.0659 50.0802 29.342C50.1778 28.6174 49.9744 27.9008 49.5064 27.3235ZM13.3514 38.6312C13.1993 38.7632 13.0518 38.8302 12.9129 38.8302C12.6277 38.8302 12.2962 38.5561 12.1577 38.2061C12.0321 37.8881 12.0906 37.6225 12.3325 37.4162L12.3357 37.4135L12.3386 37.411L15.6836 34.5544C15.9634 34.316 16.245 34.1899 16.4981 34.1899C16.8685 34.1899 17.1455 34.4601 17.246 34.7114C17.3535 34.9797 17.2889 35.2192 17.0549 35.4224L16.4718 35.9276L16.4703 35.929C16.4674 35.9313 16.4647 35.9338 16.4618 35.9362C16.4409 35.9544 16.4194 35.9731 16.3981 35.9916L13.3514 38.6312ZM16.0551 40.9112C15.9043 41.0392 15.7607 41.1012 15.6162 41.1012C15.3148 41.1012 14.9644 40.8291 14.8184 40.4814C14.6575 40.0985 14.8484 39.9217 14.9088 39.8657C14.9476 39.83 14.9941 39.7871 15.0427 39.7372L15.0435 39.7364L15.0538 39.7277C15.2448 39.5638 16.9267 38.1037 17.7303 37.4061L17.7902 37.3542C18.0625 37.1246 18.3384 37.0032 18.5883 37.0032C18.9826 37.0032 19.276 37.2931 19.3819 37.5623C19.4872 37.83 19.424 38.0642 19.195 38.258L18.989 38.432C18.9875 38.4334 18.986 38.4344 18.9845 38.4357L18.9831 38.4371L16.0551 40.9112ZM19.0145 42.9702C19.0008 42.982 18.9879 42.9944 18.9746 43.0064L18.7416 43.2084C18.5346 43.3882 18.3272 43.4372 18.089 43.3621C17.7878 43.2671 17.5248 42.9895 17.4631 42.702C17.4095 42.4519 17.5137 42.2202 17.7782 41.9962L18.1094 41.7181C18.1178 41.7111 18.125 41.7034 18.1331 41.6962L20.3032 39.8625C20.8233 39.4208 21.3383 39.3766 21.6811 39.7448C21.7293 39.7967 22.1382 40.2636 21.6391 40.6967L20.3063 41.8522C20.292 41.8643 20.2775 41.8752 20.2634 41.8876C20.2584 41.892 20.2542 41.8972 20.2493 41.9015L19.0297 42.9588C19.0248 42.9628 19.0193 42.966 19.0145 42.9702ZM20.2999 45.1124C20.1953 45.0008 19.9934 44.7114 20.3245 44.4059L21.6541 43.2533C21.7547 43.1706 21.8517 43.105 21.9425 43.06C21.9465 43.0579 21.9508 43.0558 21.9549 43.0538C22.4909 42.7787 22.7813 43.0993 22.8577 43.2041C22.9558 43.3387 23.0755 43.6033 22.7746 43.8631L21.8637 44.6498C21.8602 44.6527 21.8568 44.6557 21.8534 44.6587L21.4585 44.9996C20.8096 45.5593 20.4076 45.2276 20.2999 45.1124ZM36.0337 40.0737C35.9726 40.3153 35.7932 40.4895 35.5412 40.5515C35.1236 40.6542 34.5949 40.4314 34.1108 39.9542C34.0746 39.9157 34.0373 39.8777 33.9984 39.8408L30.2506 36.2814C29.8605 35.9112 29.2319 35.9146 28.8465 36.2893C28.461 36.664 28.4646 37.268 28.8545 37.6383L32.5963 41.1919C32.6026 41.1983 32.6089 41.2045 32.615 41.2109C32.7645 41.3586 32.8476 41.5559 32.8486 41.7695C32.8495 41.9952 32.7604 42.2055 32.5978 42.362C32.4374 42.5164 32.1975 42.6044 31.9382 42.6044C31.9345 42.6044 31.931 42.6044 31.9273 42.6043C31.6977 42.6023 31.4882 42.5284 31.3407 42.3994C31.2786 42.3223 31.211 42.2474 31.1366 42.1757L28.3967 39.5401C28.0092 39.1674 27.3805 39.167 26.9925 39.5392C26.6046 39.9115 26.6042 40.5154 26.9916 40.8882L29.59 43.3877C29.6213 43.4318 29.6561 43.4742 29.696 43.5139L29.8066 43.6234C29.949 43.884 29.8607 44.3231 29.588 44.5931C29.1672 45.0094 28.5749 44.6424 28.153 44.2616L26.9797 43.2003C26.5804 42.8392 25.9519 42.8575 25.5761 43.241C25.2003 43.6247 25.2192 44.2284 25.6185 44.5896L26.5148 45.4002C26.517 45.4021 26.5188 45.4043 26.5209 45.4062C26.5414 45.4246 26.5722 45.4524 26.5738 45.5486C26.5776 45.7721 26.424 46.0787 26.2002 46.2939C25.8735 46.608 25.3303 46.5968 24.9641 46.2684L23.9816 45.3861L24.1017 45.2823C25.076 44.4417 25.2332 43.1372 24.4841 42.1097C24.2403 41.7753 23.935 41.5155 23.5925 41.3353C24.0753 40.4204 23.9403 39.3097 23.161 38.4728C22.7214 38.0006 22.1005 37.6781 21.4073 37.6067C21.3875 37.3674 21.333 37.1262 21.2395 36.8884C20.9023 36.0304 20.1525 35.3989 19.2701 35.1802C19.3068 34.8001 19.2522 34.4077 19.0994 34.026C18.6815 32.9829 17.6363 32.282 16.4982 32.282C15.7519 32.282 15.0147 32.5742 14.3653 33.1276L11.8303 35.2925L11.2731 34.5593L18.8312 25.2584L22.2867 25.7662L21.764 26.0921C18.9638 27.8375 18.7589 29.8675 19.5009 31.1853C20.0947 32.2401 21.2797 32.843 22.5377 32.843C23.0556 32.8429 23.586 32.7407 24.0924 32.5258C24.1058 32.52 24.1191 32.5141 24.1321 32.5079L26.7499 31.2608L28.261 32.5828C28.2625 32.5841 28.2641 32.5851 28.2654 32.5863C28.2669 32.5876 28.2681 32.5889 28.2696 32.5902L35.2543 38.5584C35.8527 39.0697 36.1441 39.6362 36.0337 40.0737ZM35.9502 36.6001L29.5935 31.1684L27.585 29.4114C27.2826 29.1467 26.842 29.0873 26.4756 29.262L23.2714 30.7885C22.4009 31.1482 21.5446 30.8059 21.2473 30.2778C20.8387 29.5521 21.4507 28.5615 22.8446 27.6927L25.9642 25.7477C27.6556 24.6913 29.43 24.6098 31.8572 24.8804L38.8855 33.5327C38.1438 34.8124 37.7499 35.2186 35.9502 36.6001ZM48.1109 29.0967C48.0819 29.3115 47.9671 29.5022 47.7881 29.6333L42.489 33.5097C42.2987 33.6496 42.0975 33.679 41.9622 33.679C41.6837 33.6789 41.428 33.5611 41.2614 33.3564L33.1728 23.3988C33.0342 23.2284 32.9736 23.0167 33.0023 22.8024C33.0312 22.5869 33.1464 22.3953 33.3268 22.2632L38.6196 18.3868C38.8117 18.2469 39.0138 18.2175 39.1498 18.2175C39.4286 18.2175 39.6837 18.3349 39.8505 18.5406L47.9404 28.4966C48.0794 28.6682 48.14 28.8812 48.1109 29.0967Z" fill="#3BB77E"/>
<path d="M19.5168 19.3789C21.0756 20.1871 22.8365 20.6142 24.6091 20.6142C30.5185 20.6142 35.3264 15.9898 35.3264 10.3057C35.3264 6.3386 32.9158 2.68024 29.1861 0.985768C27.7492 0.331649 26.2093 0 24.6091 0C18.701 0 13.8944 4.62312 13.8944 10.3057C13.8944 14.0958 16.0482 17.5721 19.5168 19.3789ZM24.6091 1.90779C25.9129 1.90779 27.1668 2.17767 28.3365 2.71004C31.3763 4.09103 33.3406 7.07259 33.3406 10.3057C33.3406 14.9379 29.4236 18.7065 24.6092 18.7065C23.1646 18.7065 21.7299 18.3583 20.4616 17.7009C17.6357 16.2287 15.8802 13.3951 15.8802 10.3057C15.8802 5.67511 19.7959 1.90779 24.6091 1.90779Z" fill="#3BB77E"/>
<path d="M5.11057 24.3974C5.2934 24.5376 5.51207 24.6057 5.72926 24.6057C6.02089 24.6057 6.30985 24.4828 6.50588 24.2467L6.5171 24.2332C6.85914 23.8215 6.78893 23.2212 6.36036 22.8926C5.93178 22.5642 5.30698 22.6313 4.96505 23.0433L4.95382 23.0569C4.61179 23.4686 4.68199 24.0688 5.11057 24.3974Z" fill="#3BB77E"/>
</g>
</g>
<defs>
<clipPath id="clip0_93_47">
<rect width="51" height="49" fill="white"/>
</clipPath>
</defs>
</svg>
