<svg width="20" height="19" viewBox="0 0 20 19" fill="none" xmlns="http://www.w3.org/2000/svg">
<path d="M8.07362 1.875C8.07362 0.839475 8.96327 0 10.0608 0C11.1583 0 12.0479 0.839456 12.0479 1.875V7.5H18.0094C19.1069 7.5 19.9965 8.33944 19.9965 9.375C19.9965 10.4106 19.1069 11.25 18.0094 11.25H12.0479V16.875C12.0479 17.9106 11.1583 18.75 10.0608 18.75C8.96327 18.75 8.07362 17.9106 8.07362 16.875V11.25H2.11215C1.01469 11.25 0.125 10.4106 0.125 9.375C0.125 8.33944 1.01467 7.5 2.11215 7.5H8.07362V1.875Z" fill="white"/>
</svg>
