<svg width="40" height="41" viewBox="0 0 40 41" fill="none" xmlns="http://www.w3.org/2000/svg">
<path fill-rule="evenodd" clip-rule="evenodd" d="M12.5881 40.7387C27.2519 40.7387 35.2726 25.2034 35.2726 11.7329C35.2726 11.2907 35.2726 10.8518 35.2492 10.4145C36.8095 8.97356 38.156 7.18444 39.2266 5.13729C37.7732 5.96212 36.2285 6.50304 34.6489 6.74153C36.3121 5.46703 37.5575 3.46471 38.154 1.10204C36.588 2.28958 34.8762 3.1277 33.0906 3.5774C30.0712 -0.526865 25.0213 -0.725718 21.8096 3.13506C19.7403 5.62444 18.8601 9.33607 19.5032 12.8763C13.0933 12.4639 7.12054 8.59329 3.07135 2.22575C0.955426 6.884 2.03767 12.841 5.54089 15.8322C4.27211 15.785 3.03054 15.3483 1.92109 14.5582V14.6876C1.92304 19.5397 4.59854 23.7176 8.31742 24.679C7.14386 25.0889 5.912 25.1484 4.719 24.8527C5.76239 29.0067 8.75654 31.8518 12.1665 31.9338C9.34332 34.771 5.85565 36.3116 2.265 36.3067C1.63159 36.3042 0.998172 36.2569 0.366699 36.1601C4.0137 39.1513 8.25525 40.7387 12.5881 40.7313" fill="#4DBD7A"/>
</svg>
