<svg width="50" height="60" viewBox="0 0 50 60" fill="none" xmlns="http://www.w3.org/2000/svg">
<path fill-rule="evenodd" clip-rule="evenodd" d="M35.8761 46.3908C40.3774 46.5892 44.1622 42.3404 44.338 36.8915V22.7833C44.1622 17.3346 40.3774 13.0856 35.8761 13.284H13.7329C9.23167 13.0856 5.44676 17.3346 5.271 22.7833V36.8915C5.44676 42.3404 9.23167 46.5892 13.7329 46.3908H35.8761Z" stroke="#4DBD7A" stroke-width="3.6" stroke-linecap="round" stroke-linejoin="round"/>
<path fill-rule="evenodd" clip-rule="evenodd" d="M23.8436 23.1569L30.0181 28.2363C30.4182 28.5191 30.6641 29.0377 30.6641 29.5984C30.6641 30.1594 30.4182 30.678 30.0181 30.9605L23.8436 36.5178C22.6716 37.4802 20.8979 36.6596 20.8979 35.1557V24.5143C20.8979 23.0174 22.6735 22.1944 23.8436 23.1569Z" stroke="#4DBD7A" stroke-width="3.6" stroke-linecap="round" stroke-linejoin="round"/>
</svg>
